<svg xmlns="http://www.w3.org/2000/svg" version="1.1" xmlns:xlink="http://www.w3.org/1999/xlink" xmlns:svgjs="http://svgjs.dev/svgjs" width="1500" height="1500" viewBox="0 0 1500 1500"><g transform="matrix(1,0,0,1,-0.7499999999998863,-0.7499999999998863)"><svg viewBox="0 0 280 280" data-background-color="#aaaaaa" preserveAspectRatio="xMidYMid meet" height="1500" width="1500" xmlns="http://www.w3.org/2000/svg" xmlns:xlink="http://www.w3.org/1999/xlink"><g id="tight-bounds" transform="matrix(1,0,0,1,0.13999999999998636,0.13999999999998636)"><svg viewBox="0 0 279.72 279.72" height="279.72" width="279.72"><g><svg viewBox="0 0 279.72 279.72" height="279.72" width="279.72"><g><svg viewBox="0 0 279.72 279.72" height="279.72" width="279.72"><g id="textblocktransform"><svg viewBox="0 0 279.72 279.72" height="279.72" width="279.72" id="textblock"><g><svg viewBox="0 0 279.72 279.72" height="279.72" width="279.72"><g transform="matrix(1,0,0,1,50.0295080714516,50.0295080714516)"><svg viewBox="0 0 179.66098385709682 179.66098385709682" height="179.66098385709682" width="179.66098385709682"><g id="icon-0"><circle r="90" cx="89.83049192854841" cy="89.83049192854841" fill="#b4bfc5" data-fill-palette-color="accent"></circle><svg xmlns="http://www.w3.org/2000/svg" xml:space="preserve" viewBox="3.0869999999999997 7.054203843281925e-8 93.826 100.00099980071037" id="jxe-0" width="125.76268869996778" height="125.76268869996778" x="26.94914757856452" y="26.949147578564528" class="icon-jxe-0" data-fill-palette-color="quaternary"><path d="M48.92 50.541l0.822 0.667 0.579-0.712 0.557 0.728 0.841-0.644-0.498-0.65 0.785-0.234-0.302-1.015-0.336 0.1-0.006-0.733-1.059 0.009 0.008 1.024-1.342-0.412-0.31 1.013 0.767 0.235zM40.136 61.357l0.823 0.667-2.196 2.705-0.822-0.667zM41.598 59.557l2.197-2.704 0.822 0.668-2.197 2.704zM45.258 55.052l2.198-2.704 0.822 0.668-2.197 2.705zM37.294 66.534l-0.822-0.668-0.844 1.038-1.337 0.005 0.004 1.059 1.588-0.006-0.002-0.529 0.411 0.333zM56.478 56.793l2.042 2.664-0.84 0.645-2.042-2.665zM59.886 61.231l2.041 2.663-0.84 0.645-2.042-2.664zM53.08 52.353l2.042 2.663-0.84 0.645-2.042-2.664zM56.484 48.366l-2.687 0.8-0.302-1.015 2.688-0.8zM66.935 44.158l2.688-0.799 0.302 1.016-2.688 0.799zM60.961 47.034l-2.688 0.8-0.302-1.017 2.688-0.799zM50.17 30.087l1.058-0.008 0.028 3.594-1.059 0.008zM51.318 42.06l0.027 3.594-1.06 0.008-0.026-3.594zM50.243 39.668l-0.028-3.594 1.06-0.008 0.027 3.594zM40.818 47.28l-3.36-1.029 0.31-1.012 3.36 1.029zM43.37 46.955l3.361 1.029-0.31 1.013-3.36-1.03zM35.212 45.564l-3.36-1.029 0.31-1.012 3.36 1.029zM38.695 36.577l1.001 0.344 0.39-1.135 1.2 0.029 0.026-1.059-0.881-0.022 0.268-0.839-1.009-0.322-0.483 1.513zM38.01 41.827l-1.002-0.345 1.013-2.943 1.001 0.345zM34.64 51.636l-1.002-0.345 1.014-2.942 1 0.345zM36.325 46.732l-1.002-0.345 1.014-2.943 1.001 0.345zM33.957 56.268l0.603-0.871-0.977-0.676 0.386-1.123-1.001-0.344-0.28 0.814-0.69-0.517-0.635 0.849 1.272 0.952 0.317-0.424-0.301 0.435zM40.642 59.609l2.605 1.805-0.603 0.87-2.606-1.805zM36.298 56.597l2.606 1.805-0.603 0.87-2.606-1.804zM44.98 62.617l2.606 1.804-0.603 0.871-2.606-1.804zM50.636 67.398l1.302-0.909-0.606-0.868-1 0.698-1.004-0.694-0.603 0.87 0.685 0.474-0.68 0.482 0.613 0.863zM53.568 65.354l-0.606-0.869 2.44-1.702 0.607 0.869zM61.084 58.81l2.44-1.703 0.606 0.868-2.44 1.703zM59.466 59.943l0.606 0.869-2.441 1.7-0.606-0.869zM64.492 45.986l0.952-0.283-0.302-1.016-0.952 0.283-0.286-0.964-1.015 0.301 0.286 0.965-0.721 0.214 0.302 1.016 0.721-0.214 0.286 0.964 1.015-0.301zM65.36 48.916l0.874 2.945-1.015 0.301-0.874-2.945zM63.32 42.046l-1.015 0.3-0.872-2.946 1.016-0.3zM54.03 35.065l3.18 0.077-0.025 1.06-3.18-0.079zM46.612 34.885l-0.026 1.06-3.18-0.078 0.027-1.06zM48.73 34.939l3.18 0.077-0.026 1.059-3.18-0.078zM23.635 86.543l-0.612-0.864 1.295-0.918 0.613 0.864zM35.173 77.067l2.713-1.924 0.612 0.863-2.713 1.924zM28.84 81.554l-0.187 0.133-1.081-0.706-0.578 0.888 0.731 0.476-1.598 1.132 0.613 0.864 1.938-1.374 1.035 0.675 0.579-0.887-1.117-0.728zM44.214 70.655l2.713-1.923 0.612 0.863-2.713 1.924zM39.687 73.862l2.712-1.923 0.613 0.864-2.713 1.923zM30.646 80.273l2.712-1.923 0.612 0.863-2.713 1.923zM77.154 86.29l-0.532-1.497 0.996-0.355 0.533 1.497zM69.612 61.926l-0.998 0.355-1.09-3.07 0.998-0.354zM73.25 72.158l-0.998 0.354-1.092-3.068 0.998-0.355zM74.8 79.678l0.997-0.355 1.092 3.069-0.998 0.355zM69.34 64.329l0.997-0.355 1.09 3.07-0.997 0.355zM66.794 57.169l0.998-0.354-0.527-1.483-0.448-1.51-1.015 0.302 0.343 1.156-0.989 0.69 0.606 0.869 0.733-0.512zM60.913 35.232l-1.583-0.039-0.025 1.059 1.202 0.03 0.342 1.153 1.016-0.301-0.252-0.85 0.886-0.01-0.011-1.059zM64.7 35.189l3.323-0.036 0.011 1.06-3.322 0.035zM90.179 34.916l0.011 1.06-3.322 0.035-0.012-1.06zM73.567 35.095l0.011 1.06-3.321 0.036-0.012-1.059zM79.117 36.098l-3.323 0.035-0.011-1.059 3.323-0.035zM93.982 34.875l0.012 1.06-1.59 0.016-0.01-1.059zM49.526 2.766l1.009 0.322-0.483 1.513-1.009-0.322zM44.888 17.298l1.008 0.321-1.038 3.256-1.008-0.322zM41.425 28.148l1.008 0.322-1.04 3.255-1.007-0.321zM48.352 6.448l1.008 0.322-1.038 3.255-1.008-0.322zM46.587 15.451l0.824-2.58 1.435-0.022-0.016-1.058-3.026 0.044 0.016 1.059 0.475-0.007-0.716 2.242zM43.122 26.3l-1.008-0.321 1.039-3.256 1.008 0.322zM6.73 34.623l1.27 0.953-0.634 0.848-1.272-0.953zM25.144 49.74l-2.666-1.998 0.635-0.847 2.666 1.997zM9.78 36.909l2.666 1.996-0.636 0.849-2.666-1.997zM20.7 46.41l-2.666-1.997 0.635-0.848 2.666 1.998zM16.253 43.081l0.636-0.848-2.667-1.997-0.635 0.848 0.057 0.042-0.495-0.143-0.863 2.988 1.017 0.294 0.807-2.79zM29.59 53.069l-2.667-1.998 0.636-0.848 2.666 1.998zM21.978 14.278l0.894-0.184-0.177-0.855 0.933-0.014-0.016-1.059-1.588 0.023 0.007 0.457-0.238 0.049-0.424-0.123-0.442 1.525 1.017 0.295zM16.606 29.034l0.864-2.987 1.017 0.294-0.864 2.988zM16.03 31.027l1.017 0.295-0.865 2.987-1.018-0.295zM20.35 16.09l1.018 0.294-0.861 2.988-1.019-0.294zM7.544 64.183l-1.017-0.293 0.861-2.988 1.018 0.293zM10.272 50.94l1.018 0.295-0.864 2.987-1.018-0.295zM9.847 56.215l-0.864 2.988-1.017-0.295 0.864-2.987zM14.592 36.004l1.017 0.294-0.864 2.987-1.017-0.294zM11.863 49.245l-1.018-0.294 0.863-2.988 1.018 0.294zM18.912 21.07l1.017 0.294-0.866 2.987-1.017-0.295zM7.606 67.955l-0.004-0.94-0.881 0.003 0.245-0.846-1.017-0.295-0.442 1.526 0.509 0.147-0.289 0.444 1.331 1.331 0.513-0.325H7v-0.98l0.333-0.045zM20.654 77.732l-2.719-1.775 0.58-0.887 2.719 1.774zM43.311 92.513l-2.72-1.774 0.58-0.887 2.719 1.774zM38.774 89.557l-2.72-1.773 0.58-0.887 2.718 1.773zM47.836 95.47l-2.719-1.772 0.578-0.887 2.72 1.772zM16.116 74.771l-2.718-1.773 0.578-0.887 2.719 1.773zM34.245 86.603l-2.719-1.774 0.58-0.887 2.717 1.774zM25.178 80.686l-2.719-1.773 0.579-0.887 2.718 1.773zM11.587 71.821l-2.718-1.773 0.579-0.888 2.718 1.774zM67.053 84.705l-0.676-0.816 2.509-2.077 0.675 0.815zM58.693 91.626l-0.676-0.816 2.51-2.078 0.675 0.816zM87.98 67.398l-0.675-0.815 2.509-2.079 0.676 0.816zM54.501 95.085l-0.675-0.816 2.509-2.078 0.675 0.816zM62.875 88.165l-0.675-0.816 2.511-2.076 0.675 0.816zM79.61 74.317l-0.676-0.816 2.512-2.078 0.675 0.817zM75.426 77.782l2.51-2.076-0.675-0.815-2.349 1.942-0.935-2.627-0.998 0.355 1.092 3.068 0.949-0.337zM71.244 81.24l-0.675-0.816 2.51-2.077 0.675 0.816zM83.794 70.86l-0.675-0.817 2.512-2.075 0.674 0.816zM92.94 60.851l-0.59 0.24-0.062-0.062-0.143 0.145-0.186 0.076 0.033 0.08-0.448 0.454 0.715 0.703-0.772 0.638 0.675 0.816 1.224-1.012-0.338-0.408 0.491-0.199zM81.891 33.705l-0.98 0.399-1.227-3.016 0.98-0.399zM79.85 28.68l-0.98 0.399-1.229-3.015 0.98-0.399zM90.074 53.816l-0.98 0.4-1.229-3.015 0.981-0.4zM85.983 43.764l-0.981 0.4-1.229-3.017 0.98-0.4zM85.816 46.172l0.98-0.4 1.229 3.016-0.98 0.399zM89.908 56.224l0.98-0.4 1.228 3.014-0.98 0.4zM75.753 18.632l-0.98 0.4-1.23-3.016 0.982-0.4zM82.848 36.058l1.803-0.019-0.011-1.059-3.323 0.035 0.012 1.059 0.521-0.006-0.121 0.05 1.228 3.016 0.98-0.4zM77.795 23.657l-0.98 0.399-1.228-3.016 0.981-0.4zM28.656 12.09l0.016 1.06-3.027 0.045-0.016-1.058zM43.788 11.867l0.016 1.059-3.027 0.044-0.015-1.058zM63.961 11.566l0.016 1.059-3.027 0.043-0.015-1.059zM33.698 12.015l0.016 1.06-3.026 0.045-0.016-1.059zM53.872 11.715l0.016 1.06-3.027 0.045-0.016-1.059zM58.919 11.641l0.016 1.06-3.027 0.044-0.016-1.059zM69.005 11.491l0.015 1.06-3.026 0.043-0.016-1.06zM38.745 11.941l0.015 1.06-3.025 0.044-0.016-1.059zM19.466 66.962h2.966v1.059h-2.966zM14.524 66.981h2.965v1.059h-2.965zM9.582 67.001h2.965v1.059H9.582zM24.409 66.942h2.965v1.059h-2.965zM32.315 67.977l-2.965 0.012-0.004-1.06 2.965-0.011zM28.602 41.824l-1.037 0.214 0.321 1.555 0.531-0.109 1.197 0.366 0.31-1.012-1.188-0.364zM22.895 19.443l-0.637-3.081 1.037-0.214 0.637 3.08zM26.08 34.847l-0.638-3.081 1.037-0.215 0.638 3.081zM24.995 24.364l-1.038 0.215-0.636-3.08 1.038-0.215zM27.542 36.686l0.636 3.08-1.037 0.215-0.636-3.081zM26.054 29.5l-1.037 0.214-0.635-3.081 1.037-0.214zM51.68 24.95l-1.334 0.863 0.184 0.284-0.39 0.003 0.012 1.588 1.059-0.008-0.009-1.16 1.053-0.681zM65.423 17.319l-2.634 1.704-0.575-0.89 2.634-1.703zM54.012 24.702l-0.574-0.89 2.635-1.701 0.575 0.89zM61.037 20.163l-2.634 1.704-0.575-0.889 2.634-1.704zM69.816 14.48l-2.634 1.703-0.575-0.89 2.634-1.703zM71.571 13.347l0.703-0.455 0.452 1.109 0.981-0.398-0.6-1.472-0.34 0.139-0.148-0.229-0.009-0.605-1.589 0.024 0.014 0.972-0.039 0.026zM74.59 43.616l-1.132-1.115-0.372 0.378-0.15-0.508-1.523 0.453 0.302 1.015 1.223-0.363 0.91 0.894zM81.887 52.284l-2.414-2.374 0.742-0.755 2.414 2.374zM89.935 60.199l-2.413-2.375 0.742-0.754 2.413 2.374zM77.87 48.325l-2.412-2.375 0.743-0.755 2.413 2.376zM85.912 56.241L83.5 53.867l0.743-0.755 2.413 2.374zM63.707 68.925l0.616-1.464-0.488-0.206 0.42-0.321-0.966-1.261-0.841 0.644 0.779 1.016-0.497 1.181zM56.433 83.45l1.258-2.987 0.976 0.41-1.258 2.988zM60.772 75.896l-1.26 2.988-0.975-0.412 1.259-2.987zM56.57 85.858l-1.259 2.988-0.976-0.41 1.26-2.99zM52.245 93.412l1.259-2.987 0.976 0.41-1.259 2.989zM60.63 73.489l1.26-2.988 0.977 0.412-1.26 2.987zM52.375 95.815l-0.129-0.055-0.089-0.108-0.056 0.047-0.702-0.296-0.371 0.88-0.799-0.521-0.578 0.887 1.33 0.868 0.29-0.444 0.337 0.408 1.224-1.012-0.485-0.586z" fill="#265171" data-fill-palette-color="quaternary"></path><circle cx="6.41" cy="35.047" r="2.9" fill="#265171" data-fill-palette-color="quaternary"></circle><circle cx="32.979" cy="55.016" r="4.8" fill="#265171" data-fill-palette-color="quaternary"></circle><circle cx="93.05" cy="62.521" r="2.9" fill="#265171" data-fill-palette-color="quaternary"></circle><circle cx="93.987" cy="35.409" r="2.9" fill="#265171" data-fill-palette-color="quaternary"></circle><circle cx="51.27" cy="97.073" r="2.9" fill="#265171" data-fill-palette-color="quaternary"></circle><circle cx="6.015" cy="67.55" r="2.9" fill="#265171" data-fill-palette-color="quaternary"></circle><circle cx="50.332" cy="49.641" r="5.5" fill="#265171" data-fill-palette-color="quaternary"></circle><circle cx="39.816" cy="35" r="4.8" fill="#265171" data-fill-palette-color="quaternary"></circle><circle cx="60.904" cy="35.842" r="4.8" fill="#265171" data-fill-palette-color="quaternary"></circle><circle cx="77.649" cy="86.109" r="2.9" fill="#265171" data-fill-palette-color="quaternary"></circle><circle cx="50.635" cy="67.21" r="4.8" fill="#265171" data-fill-palette-color="quaternary"></circle><circle cx="66.735" cy="55.478" r="4.8" fill="#265171" data-fill-palette-color="quaternary"></circle><circle cx="28.249" cy="42.879" r="2.0" fill="#265171" data-fill-palette-color="quaternary"></circle><circle cx="50.633" cy="26.257" r="1.9" fill="#265171" data-fill-palette-color="quaternary"></circle><circle cx="35.881" cy="67.433" r="2.1" fill="#265171" data-fill-palette-color="quaternary"></circle><circle cx="63.833" cy="67.255" r="2.1" fill="#265171" data-fill-palette-color="quaternary"></circle><circle cx="50.032" cy="2.927" r="2.9" fill="#265171" data-fill-palette-color="quaternary"></circle><circle cx="72.616" cy="12.331" r="2.9" fill="#265171" data-fill-palette-color="quaternary"></circle><circle cx="73.085" cy="42.879" r="2.2" fill="#265171" data-fill-palette-color="quaternary"></circle><circle cx="23.331" cy="86.109" r="2.9" fill="#265171" data-fill-palette-color="quaternary"></circle><circle cx="22.031" cy="12.646" r="2.9" fill="#265171" data-fill-palette-color="quaternary"></circle></svg></g></svg></g><g id="text-0"><path d="M26.75 101.222v0l-2.603 8.019-20.606-6.687 2.38-7.335c0.6-1.85 1.553-3.199 2.858-4.046 1.311-0.845 2.78-1.004 4.406-0.477v0c0.985 0.32 1.845 0.854 2.579 1.604 0.735 0.75 1.111 1.628 1.129 2.634v0c0.702-0.948 1.568-1.591 2.598-1.929 1.036-0.336 2.173-0.303 3.408 0.099v0c1.024 0.332 1.906 0.878 2.646 1.636 0.738 0.765 1.235 1.697 1.492 2.796 0.248 1.103 0.153 2.332-0.287 3.686zM8.119 96.381l-1.38 4.252 6.512 2.114 1.38-4.253c0.356-1.097 0.431-2.081 0.223-2.951-0.207-0.871-0.938-1.51-2.193-1.917v0c-1.275-0.414-2.262-0.332-2.961 0.245-0.698 0.577-1.226 1.414-1.581 2.51zM17.208 98.487l-1.628 5.015 7.107 2.307 1.627-5.015c0.42-1.295 0.394-2.352-0.078-3.17-0.472-0.818-1.23-1.396-2.274-1.735v0c-1.037-0.337-1.984-0.312-2.84 0.075-0.856 0.387-1.494 1.228-1.914 2.523z" fill="#265171" data-fill-palette-color="primary"></path><path d="M19.521 76.539v0c0.77-1.486 1.741-2.536 2.912-3.15 1.165-0.617 2.445-0.861 3.842-0.732 1.402 0.132 2.838 0.579 4.305 1.34v0c1.449 0.751 2.635 1.663 3.559 2.736 0.917 1.07 1.462 2.26 1.635 3.571 0.174 1.311-0.125 2.709-0.895 4.195v0c-0.761 1.468-1.73 2.515-2.908 3.141-1.174 0.62-2.463 0.864-3.865 0.731-1.409-0.135-2.838-0.579-4.287-1.33v0c-1.468-0.761-2.66-1.676-3.577-2.745-0.91-1.067-1.448-2.257-1.611-3.571-0.167-1.323 0.13-2.718 0.89-4.186zM21.64 77.637v0c-0.505 0.975-0.658 1.897-0.46 2.767 0.205 0.873 0.653 1.669 1.345 2.387 0.698 0.722 1.543 1.34 2.536 1.854v0c0.968 0.502 1.955 0.833 2.959 0.994 0.998 0.157 1.91 0.067 2.735-0.272 0.831-0.336 1.5-0.991 2.005-1.966v0c0.505-0.975 0.655-1.898 0.45-2.771-0.199-0.87-0.65-1.667-1.354-2.392-0.71-0.728-1.55-1.343-2.518-1.845v0c-0.993-0.515-1.986-0.849-2.977-1.004-0.986-0.151-1.894-0.059-2.726 0.278-0.825 0.339-1.49 0.996-1.995 1.97z" fill="#265171" data-fill-palette-color="primary"></path><path d="M23.78 58.502l4.831-6.523 16.463 12.193 2.971-4.011 1.692 1.252-7.802 10.535-1.692-1.253 3.337-4.505-14.772-10.94-3.337 4.505z" fill="#265171" data-fill-palette-color="primary"></path><path d="M55.334 39.604v0l-1.943 1.874c-0.575-0.565-1.238-0.818-1.991-0.758-0.753 0.07-1.479 0.443-2.179 1.118v0c-0.76 0.733-1.22 1.482-1.381 2.245-0.171 0.763-0.005 1.405 0.496 1.925v0c0.4 0.415 0.864 0.615 1.389 0.6 0.526-0.025 1.137-0.228 1.831-0.608v0l3.321-1.872c1.226-0.69 2.33-1.027 3.312-1.009 0.972 0.017 1.861 0.444 2.667 1.278v0c1.09 1.13 1.536 2.423 1.338 3.879-0.203 1.46-1.032 2.893-2.487 4.296v0c-3.065 2.957-5.935 3.183-8.612 0.678v0l1.965-1.895c0.852 0.703 1.699 1.006 2.541 0.907 0.837-0.093 1.688-0.557 2.552-1.391v0c0.83-0.801 1.353-1.59 1.568-2.367 0.211-0.782 0.05-1.448-0.48-1.998v0c-0.487-0.505-0.986-0.752-1.497-0.742-0.511 0.001-1.166 0.227-1.965 0.68v0l-3.075 1.721c-1.33 0.743-2.476 1.11-3.439 1.103-0.968-0.003-1.881-0.449-2.74-1.339v0c-1.018-1.055-1.423-2.285-1.216-3.692 0.207-1.406 0.995-2.77 2.365-4.092v0c1.37-1.322 2.719-2.015 4.046-2.079 1.333-0.06 2.537 0.453 3.614 1.538z" fill="#265171" data-fill-palette-color="primary"></path><path d="M81.005 33.946v0l1.096 1.623c-0.425 0.513-0.798 0.879-1.12 1.096v0c-1.439 0.972-2.694 0.834-3.763-0.414v0c-0.26 1.24-0.642 2.265-1.144 3.074-0.506 0.803-1.185 1.492-2.037 2.067v0c-1.301 0.879-2.596 1.246-3.883 1.101-1.278-0.143-2.339-0.839-3.183-2.088v0c-0.626-0.927-0.932-1.802-0.917-2.625 0.024-0.821 0.226-1.565 0.605-2.232 0.381-0.677 0.801-1.228 1.259-1.655v0c0.218-0.198 0.548-0.504 0.989-0.919 0.445-0.409 1.009-0.92 1.693-1.533v0c0.776-0.7 1.263-1.264 1.461-1.691 0.194-0.433 0.145-0.865-0.146-1.297v0l-0.31-0.457c-0.902-1.336-2.381-1.31-4.435 0.078v0c-0.99 0.669-1.608 1.367-1.855 2.095-0.246 0.728-0.134 1.533 0.335 2.414v0l-2.159 1.458c-1.019-1.584-1.266-3.047-0.74-4.392 0.53-1.338 1.592-2.546 3.187-3.623v0c1.658-1.12 3.126-1.658 4.403-1.615 1.282 0.048 2.327 0.671 3.136 1.868v0l5.237 7.755c0.474 0.702 1.097 0.793 1.868 0.273v0c0.138-0.093 0.279-0.214 0.423-0.361zM75.11 33.186v0l-1.44-2.133c-0.303 0.507-0.747 1.041-1.332 1.603-0.575 0.564-1.121 1.071-1.638 1.521v0c-0.914 0.793-1.553 1.56-1.917 2.301-0.354 0.742-0.241 1.542 0.338 2.399v0c0.451 0.668 1.047 1.024 1.789 1.068 0.736 0.048 1.533-0.218 2.392-0.798v0c0.633-0.428 1.16-0.989 1.579-1.682 0.414-0.69 0.661-1.423 0.742-2.198 0.074-0.771-0.096-1.465-0.513-2.081z" fill="#265171" data-fill-palette-color="primary"></path><path d="M112.792 8.75l-2.198-8.074 2.483-0.676 5.934 21.798-2.212 0.603-0.602-2.212c-0.754 2.178-2.169 3.55-4.247 4.115v0c-1.535 0.418-2.911 0.389-4.128-0.086-1.223-0.473-2.256-1.29-3.097-2.451-0.841-1.161-1.479-2.538-1.913-4.134v0c-0.412-1.515-0.534-2.954-0.366-4.317 0.162-1.362 0.646-2.548 1.451-3.56 0.805-1.011 1.948-1.718 3.429-2.121v0c2.132-0.58 3.953-0.209 5.466 1.115zM108.373 9.855v0c-0.979 0.266-1.734 0.757-2.267 1.471-0.533 0.714-0.85 1.571-0.953 2.57-0.102 1 0.002 2.069 0.312 3.209v0c0.286 1.052 0.716 1.994 1.287 2.825 0.565 0.833 1.258 1.436 2.081 1.81 0.824 0.381 1.772 0.425 2.844 0.133v0c1.059-0.288 1.827-0.814 2.303-1.578 0.476-0.763 0.735-1.637 0.777-2.62 0.04-0.99-0.069-1.961-0.329-2.912v0c-0.288-1.059-0.706-2.011-1.252-2.856-0.555-0.85-1.23-1.476-2.024-1.879-0.794-0.403-1.72-0.461-2.779-0.173z" fill="#265171" data-fill-palette-color="primary"></path><path d="M136.346 14.849l2.592-0.26c-0.101 1.714-0.712 3.136-1.835 4.268-1.116 1.131-2.62 1.791-4.514 1.981v0c-1.624 0.163-3.019-0.068-4.185-0.691-1.159-0.624-2.075-1.545-2.748-2.762-0.673-1.217-1.092-2.648-1.257-4.294v0c-0.181-1.811-0.029-3.394 0.457-4.748 0.492-1.362 1.256-2.451 2.291-3.266 1.042-0.823 2.302-1.309 3.781-1.457v0c1.666-0.167 3.067 0.088 4.203 0.762 1.136 0.675 2.026 1.686 2.67 3.032 0.644 1.346 1.06 2.955 1.248 4.829v0l-11.904 1.191c0.2 1.579 0.742 2.848 1.628 3.806 0.886 0.966 2.109 1.37 3.671 1.214v0c2.115-0.212 3.416-1.414 3.902-3.605zM131.135 5.997v0c-1.438 0.144-2.489 0.727-3.155 1.751-0.666 1.023-0.993 2.218-0.982 3.585v0l9.062-0.907c-0.091-0.906-0.352-1.707-0.785-2.403-0.432-0.69-0.999-1.223-1.699-1.6-0.701-0.377-1.515-0.519-2.441-0.426z" fill="#265171" data-fill-palette-color="primary"></path><path d="M177.571 3.507l-1.007 4.356 6.224 1.438-0.474 2.051-6.224-1.438-2.036 8.812c-0.271 1.171-0.157 2.053 0.34 2.646 0.498 0.593 1.322 1.022 2.472 1.288v0c0.521 0.12 1.011 0.205 1.471 0.254 0.451 0.054 0.881 0.075 1.29 0.063v0l-0.509 2.203c-0.54 0.025-1.056 0.005-1.548-0.058-0.5-0.058-0.96-0.136-1.379-0.233v0c-1.916-0.443-3.283-1.172-4.104-2.189-0.827-1.018-1.043-2.384-0.647-4.096v0l2.143-9.27-4.559-1.053 0.474-2.051 4.558 1.053 1.007-4.355z" fill="#265171" data-fill-palette-color="primary"></path><path d="M189.08 29.092l-2.405-1.003 6.245-14.986 2.203 0.918-1.347 3.232c0.94-0.865 2.021-1.446 3.243-1.741 1.222-0.296 2.442-0.19 3.661 0.317v0c1.719 0.716 2.847 1.702 3.385 2.957 0.538 1.255 0.564 2.655 0.079 4.199v0l-2.375-0.99c0.201-0.97 0.142-1.804-0.178-2.501-0.328-0.694-0.999-1.252-2.011-1.674v0c-0.994-0.414-1.972-0.513-2.936-0.297-0.957 0.219-1.828 0.694-2.615 1.427-0.787 0.733-1.428 1.693-1.923 2.879v0z" fill="#265171" data-fill-palette-color="primary"></path><path d="M217.486 42.872v0l-1.047 1.656c-0.64-0.183-1.125-0.379-1.454-0.587v0c-1.468-0.929-1.844-2.133-1.13-3.613v0c-1.241 0.259-2.332 0.321-3.274 0.185-0.938-0.141-1.842-0.487-2.71-1.037v0c-1.327-0.84-2.182-1.878-2.566-3.116-0.382-1.228-0.17-2.479 0.636-3.753v0c0.598-0.945 1.277-1.576 2.036-1.893 0.762-0.307 1.524-0.421 2.288-0.34 0.773 0.078 1.446 0.241 2.02 0.489v0c0.269 0.121 0.682 0.3 1.239 0.537 0.553 0.243 1.248 0.555 2.084 0.936v0c0.953 0.43 1.664 0.65 2.134 0.661 0.474 0.004 0.851-0.214 1.13-0.655v0l0.295-0.466c0.862-1.362 0.245-2.706-1.851-4.032v0c-1.01-0.639-1.897-0.925-2.663-0.859-0.765 0.066-1.458 0.492-2.077 1.275v0l-2.201-1.393c1.042-1.569 2.284-2.382 3.726-2.439 1.438-0.052 2.971 0.437 4.597 1.466v0c1.691 1.07 2.773 2.198 3.246 3.386 0.47 1.193 0.318 2.401-0.454 3.622v0l-5.004 7.907c-0.453 0.716-0.286 1.323 0.5 1.821v0c0.141 0.089 0.308 0.17 0.5 0.242zM215.818 37.168v0l1.376-2.175c-0.586-0.075-1.253-0.267-2.002-0.577-0.747-0.3-1.431-0.597-2.051-0.891v0c-1.094-0.519-2.052-0.797-2.876-0.833-0.822-0.027-1.509 0.397-2.063 1.272v0c-0.431 0.681-0.518 1.37-0.26 2.068 0.252 0.694 0.815 1.317 1.69 1.87v0c0.646 0.409 1.371 0.666 2.175 0.772 0.798 0.102 1.569 0.035 2.311-0.202 0.736-0.241 1.303-0.676 1.7-1.304z" fill="#265171" data-fill-palette-color="primary"></path><path d="M222.402 49.474l-1.737-1.545 15.016-16.879 1.923 1.711-5.665 6.369c2.059-0.548 3.899-0.102 5.518 1.338v0c1.189 1.057 1.915 2.211 2.18 3.46 0.264 1.239 0.156 2.5-0.325 3.783-0.481 1.293-1.243 2.526-2.286 3.699v0c-1.099 1.235-2.296 2.174-3.593 2.815-1.291 0.646-2.584 0.914-3.88 0.802-1.296-0.111-2.522-0.682-3.679-1.711v0c-1.656-1.473-2.319-3.309-1.99-5.508v0zM235.507 41.97v0c-0.82-0.73-1.685-1.085-2.594-1.067-0.914 0.014-1.804 0.283-2.669 0.806-0.86 0.518-1.642 1.171-2.343 1.96v0c-0.67 0.753-1.207 1.581-1.612 2.485-0.4 0.899-0.547 1.796-0.44 2.69 0.097 0.895 0.555 1.707 1.375 2.437v0c0.815 0.725 1.676 1.1 2.582 1.126 0.902 0.031 1.792-0.191 2.67-0.665 0.882-0.48 1.672-1.111 2.369-1.895v0c0.757-0.851 1.325-1.746 1.704-2.683 0.378-0.937 0.499-1.857 0.363-2.76-0.137-0.912-0.605-1.724-1.405-2.434z" fill="#265171" data-fill-palette-color="primary"></path><path d="M245.865 72.687v0l-1.529 1.225c-0.546-0.382-0.941-0.724-1.184-1.028v0c-1.086-1.355-1.05-2.617 0.107-3.784v0c-1.258-0.159-2.31-0.455-3.156-0.89-0.841-0.439-1.583-1.059-2.226-1.862v0c-0.982-1.225-1.453-2.486-1.414-3.781 0.038-1.286 0.646-2.4 1.822-3.342v0c0.873-0.699 1.72-1.075 2.542-1.128 0.82-0.043 1.578 0.098 2.273 0.422 0.705 0.325 1.289 0.698 1.752 1.12v0c0.215 0.202 0.547 0.505 0.997 0.911 0.444 0.41 0.999 0.931 1.666 1.562v0c0.761 0.717 1.362 1.156 1.804 1.319 0.447 0.158 0.874 0.074 1.28-0.251v0l0.431-0.346c1.258-1.008 1.111-2.479-0.439-4.415v0c-0.747-0.933-1.493-1.492-2.239-1.678-0.745-0.186-1.538-0.009-2.379 0.531v0l-1.628-2.033c1.495-1.145 2.934-1.509 4.316-1.095 1.377 0.419 2.667 1.379 3.871 2.881v0c1.251 1.561 1.907 2.981 1.968 4.258 0.056 1.281-0.48 2.374-1.607 3.277v0l-7.303 5.85c-0.661 0.53-0.701 1.158-0.119 1.885v0c0.104 0.13 0.236 0.261 0.394 0.392zM246.142 66.75v0l2.009-1.609c-0.53-0.261-1.098-0.66-1.706-1.197-0.609-0.527-1.159-1.03-1.65-1.509v0c-0.865-0.847-1.682-1.421-2.448-1.724-0.768-0.292-1.556-0.115-2.365 0.532v0c-0.629 0.504-0.935 1.127-0.918 1.871 0.012 0.738 0.342 1.511 0.99 2.318v0c0.478 0.596 1.08 1.076 1.805 1.438 0.722 0.356 1.472 0.543 2.251 0.56 0.775 0.011 1.452-0.215 2.032-0.68z" fill="#265171" data-fill-palette-color="primary"></path><path d="M268.639 78.222l-1.564-2.67 2.67-1.565 1.565 2.67zM250.24 85.695v0l13.126-7.692-3.288-5.61 1.816-1.064 4.589 7.83-15.481 9.073c-1.373 0.804-2.689 1.004-3.949 0.599-1.269-0.407-2.385-1.432-3.348-3.075v0c-0.355-0.605-0.678-1.205-0.969-1.799-0.286-0.597-0.511-1.174-0.676-1.729v0l1.951-1.144c0.225 0.617 0.477 1.218 0.755 1.804 0.288 0.588 0.573 1.122 0.854 1.601v0c0.618 1.055 1.285 1.671 2 1.848 0.709 0.18 1.583-0.034 2.62-0.642z" fill="#265171" data-fill-palette-color="primary"></path><path d="M274.455 97.423v0c0.569 1.575 0.682 3 0.337 4.277-0.337 1.274-1.027 2.38-2.069 3.319-1.049 0.94-2.351 1.692-3.906 2.253v0c-1.535 0.555-3.01 0.807-4.424 0.757-1.408-0.053-2.652-0.46-3.732-1.222-1.08-0.762-1.905-1.93-2.475-3.504v0c-0.562-1.555-0.673-2.977-0.334-4.267 0.341-1.283 1.037-2.395 2.085-3.336 1.055-0.943 2.351-1.692 3.887-2.246v0c1.555-0.562 3.036-0.817 4.444-0.764 1.401 0.055 2.64 0.468 3.716 1.239 1.085 0.775 1.909 1.94 2.471 3.494zM272.21 98.234v0c-0.373-1.032-0.946-1.771-1.72-2.214-0.78-0.442-1.669-0.653-2.666-0.632-1.004 0.023-2.031 0.224-3.083 0.604v0c-1.026 0.371-1.938 0.87-2.738 1.499-0.793 0.626-1.345 1.358-1.656 2.194-0.317 0.839-0.29 1.774 0.084 2.807v0c0.373 1.032 0.95 1.769 1.729 2.211 0.774 0.444 1.666 0.654 2.676 0.628 1.017-0.028 2.038-0.227 3.064-0.597v0c1.052-0.38 1.971-0.882 2.758-1.506 0.78-0.622 1.329-1.352 1.646-2.191 0.311-0.836 0.28-1.771-0.094-2.803z" fill="#265171" data-fill-palette-color="primary"></path><path d="M8.663 143.557c0-1.43 1.159-2.589 2.589-2.589 1.43 0 2.589 1.159 2.589 2.589 0 1.43-1.159 2.589-2.589 2.589-1.43 0-2.589-1.159-2.589-2.589z" fill="#265171" data-fill-palette-color="primary"></path><path d="M271.001 143.557c0-1.43 1.159-2.589 2.589-2.589 1.43 0 2.589 1.159 2.589 2.589 0 1.43-1.159 2.589-2.589 2.589-1.43 0-2.589-1.159-2.589-2.589z" fill="#265171" data-fill-palette-color="primary"></path></g><g id="text-1"><path d="M16.911 184.68v0l7.129-2.092 0.405 1.38-7.329 2.151c-0.8 0.235-1.492 0.257-2.077 0.066-0.584-0.19-1.067-0.527-1.447-1.008-0.389-0.487-0.679-1.057-0.871-1.71v0c-0.198-0.673-0.263-1.316-0.197-1.93 0.073-0.615 0.307-1.151 0.701-1.607 0.399-0.465 0.989-0.812 1.769-1.04v0l7.329-2.151 0.405 1.38-7.129 2.092c-0.607 0.178-1.046 0.419-1.319 0.724-0.275 0.298-0.429 0.636-0.462 1.015-0.034 0.379 0.007 0.765 0.123 1.159v0c0.119 0.407 0.299 0.759 0.538 1.058 0.238 0.292 0.554 0.493 0.948 0.601 0.389 0.117 0.884 0.088 1.484-0.088z" fill="#265171" data-fill-palette-color="primary"></path><path d="M15.938 192.111l-0.46-1.208 7.586-2.889 0.427 1.12-1.257 0.479c0.575 0.123 1.066 0.33 1.474 0.62 0.415 0.288 0.735 0.731 0.963 1.328v0c0.171 0.448 0.247 0.883 0.23 1.307-0.013 0.414-0.127 0.788-0.342 1.122-0.224 0.33-0.572 0.586-1.046 0.767v0l-5.736 2.184-0.456-1.198 5.259-2.002c0.513-0.195 0.83-0.494 0.951-0.898 0.124-0.397 0.104-0.809-0.058-1.238v0c-0.173-0.454-0.435-0.79-0.785-1.006-0.346-0.225-0.737-0.344-1.173-0.356-0.433-0.006-0.868 0.074-1.302 0.24v0z" fill="#265171" data-fill-palette-color="primary"></path><path d="M29.903 200.918l-0.666-1.391 1.391-0.666 0.666 1.391zM27.037 197.635l1.755 3.665-6.372 3.052 1.076 2.246-0.95 0.454-2.83-5.911 0.949-0.455 1.206 2.519 5.423-2.597-1.206-2.519z" fill="#265171" data-fill-palette-color="primary"></path><path d="M34.678 211.808l0.671 1.141-8.502 1.558-0.724-1.23 5.489-6.677 0.698 1.185-4.474 5.342z" fill="#265171" data-fill-palette-color="primary"></path><path d="M35.942 223.581l0.751 1.064c-0.773 0.375-1.542 0.459-2.31 0.252-0.771-0.213-1.43-0.708-1.979-1.487v0c-0.468-0.664-0.71-1.327-0.725-1.987-0.015-0.661 0.16-1.286 0.526-1.876 0.366-0.59 0.887-1.123 1.563-1.599v0c0.744-0.524 1.471-0.85 2.18-0.977 0.708-0.117 1.37-0.052 1.985 0.194 0.61 0.25 1.129 0.679 1.558 1.286v0c0.484 0.687 0.72 1.358 0.706 2.014-0.015 0.665-0.238 1.302-0.667 1.912-0.425 0.614-1.024 1.194-1.796 1.738v0l-3.447-4.888c-0.635 0.473-1.054 1.019-1.255 1.637-0.198 0.624-0.07 1.257 0.382 1.898v0c0.613 0.869 1.455 1.141 2.528 0.819zM38.514 219.128v0c-0.416-0.59-0.931-0.904-1.542-0.94-0.606-0.04-1.206 0.111-1.798 0.452v0l2.624 3.721c0.369-0.26 0.652-0.57 0.849-0.93 0.197-0.36 0.29-0.74 0.279-1.14-0.006-0.395-0.144-0.783-0.412-1.163z" fill="#265171" data-fill-palette-color="primary"></path><path d="M38.453 230.772l-0.835-1 6.231-5.202 0.769 0.92-1.344 1.122c0.616-0.162 1.229-0.171 1.837-0.027 0.613 0.149 1.131 0.477 1.554 0.983v0c0.597 0.715 0.869 1.415 0.817 2.1-0.046 0.681-0.357 1.307-0.931 1.877v0l-0.821-0.984c0.311-0.386 0.474-0.771 0.488-1.154 0.015-0.383-0.151-0.783-0.499-1.199v0c-0.347-0.416-0.759-0.687-1.236-0.814-0.477-0.127-0.973-0.12-1.489 0.021-0.521 0.145-1.027 0.423-1.517 0.833v0z" fill="#265171" data-fill-palette-color="primary"></path><path d="M53.309 238.141v0l-0.942-0.959c0.278-0.292 0.399-0.625 0.363-0.999-0.041-0.379-0.229-0.739-0.565-1.081v0c-0.37-0.377-0.746-0.606-1.128-0.688-0.382-0.082-0.705 0.006-0.968 0.263v0c-0.203 0.2-0.299 0.43-0.286 0.69 0.007 0.265 0.11 0.573 0.308 0.924v0l0.943 1.645c0.358 0.612 0.532 1.162 0.523 1.648-0.004 0.491-0.212 0.939-0.624 1.343v0c-0.56 0.55-1.203 0.777-1.93 0.682-0.731-0.09-1.452-0.497-2.162-1.221v0c-1.489-1.517-1.616-2.95-0.381-4.299v0l0.956 0.974c-0.343 0.424-0.492 0.848-0.446 1.27 0.055 0.423 0.292 0.848 0.711 1.274v0c0.404 0.411 0.802 0.668 1.194 0.77 0.392 0.102 0.724 0.019 0.997-0.249v0c0.248-0.243 0.37-0.495 0.368-0.755-0.007-0.256-0.127-0.581-0.36-0.976v0l-0.87-1.526c-0.372-0.667-0.561-1.241-0.567-1.722-0.001-0.477 0.222-0.934 0.669-1.372v0c0.52-0.511 1.134-0.719 1.84-0.624 0.702 0.1 1.383 0.487 2.046 1.161v0c0.667 0.679 1.019 1.35 1.057 2.014 0.043 0.668-0.206 1.273-0.746 1.813z" fill="#265171" data-fill-palette-color="primary"></path><path d="M61.976 241.255l-1.167-1.007 1.007-1.168 1.168 1.008zM58.035 239.395l3.076 2.655-4.616 5.349 1.885 1.627-0.688 0.797-4.962-4.283 0.688-0.797 2.114 1.825 3.929-4.552-2.114-1.824z" fill="#265171" data-fill-palette-color="primary"></path><path d="M69.957 250.01l2.452-3.384 1.046 0.757-6.626 9.149-0.928-0.672 0.672-0.929c-1.087 0.388-2.067 0.266-2.939-0.366v0c-0.641-0.465-1.062-1.009-1.261-1.634-0.199-0.625-0.205-1.281-0.016-1.967 0.187-0.697 0.523-1.38 1.008-2.049v0c0.46-0.636 0.982-1.137 1.565-1.504 0.585-0.357 1.2-0.538 1.846-0.541 0.646-0.004 1.279 0.218 1.898 0.666v0c0.895 0.648 1.322 1.472 1.284 2.474zM68.142 248.644v0c-0.411-0.297-0.839-0.44-1.285-0.429-0.444 0.021-0.876 0.167-1.295 0.438-0.423 0.277-0.808 0.654-1.155 1.133v0c-0.322 0.444-0.557 0.905-0.704 1.381-0.146 0.486-0.162 0.946-0.048 1.38 0.11 0.44 0.39 0.823 0.84 1.149v0c0.444 0.322 0.889 0.455 1.333 0.399 0.449-0.052 0.874-0.224 1.275-0.517 0.391-0.291 0.733-0.64 1.027-1.045v0c0.318-0.439 0.557-0.9 0.719-1.383 0.157-0.478 0.189-0.936 0.094-1.373-0.095-0.438-0.362-0.815-0.801-1.133z" fill="#265171" data-fill-palette-color="primary"></path><path d="M77.273 261.937v0l-0.507 0.839c-0.32-0.088-0.564-0.182-0.73-0.283v0c-0.743-0.449-0.947-1.046-0.61-1.792v0c-0.616 0.147-1.157 0.19-1.623 0.128-0.475-0.06-0.933-0.222-1.373-0.488v0c-0.672-0.406-1.111-0.914-1.318-1.527-0.197-0.614-0.102-1.242 0.286-1.884v0c0.291-0.482 0.624-0.804 0.998-0.968 0.375-0.163 0.755-0.23 1.142-0.199 0.384 0.037 0.72 0.11 1.011 0.221v0c0.136 0.058 0.342 0.146 0.62 0.265 0.281 0.113 0.634 0.261 1.058 0.444v0c0.476 0.206 0.833 0.308 1.07 0.305 0.237-0.003 0.422-0.114 0.555-0.335v0l0.145-0.24c0.417-0.69 0.095-1.354-0.963-1.994v0c-0.517-0.312-0.966-0.449-1.346-0.411-0.378 0.048-0.718 0.268-1.021 0.662v0l-1.115-0.673c0.503-0.792 1.116-1.209 1.839-1.252 0.717-0.046 1.489 0.181 2.316 0.681v0c0.856 0.517 1.406 1.072 1.648 1.664 0.246 0.587 0.183 1.19-0.19 1.808v0l-2.419 4.006c-0.219 0.363-0.129 0.664 0.269 0.905v0c0.071 0.043 0.157 0.083 0.257 0.118zM76.381 259.099v0l0.663-1.097c-0.297-0.033-0.632-0.122-1.007-0.268-0.378-0.139-0.724-0.279-1.037-0.419v0c-0.547-0.249-1.03-0.378-1.447-0.386-0.407-0.011-0.746 0.207-1.015 0.653v0c-0.208 0.345-0.245 0.688-0.11 1.029 0.137 0.351 0.426 0.659 0.866 0.924v0c0.327 0.197 0.691 0.32 1.093 0.368 0.405 0.042 0.789-0.003 1.151-0.133 0.368-0.126 0.65-0.35 0.843-0.671z" fill="#265171" data-fill-palette-color="primary"></path><path d="M88.278 260.47l1.864-3.74 1.156 0.576-5.038 10.11-1.026-0.511 0.511-1.026c-1.009 0.561-1.995 0.601-2.959 0.121v0c-0.709-0.353-1.213-0.822-1.511-1.406-0.299-0.584-0.412-1.23-0.339-1.938 0.07-0.718 0.29-1.447 0.659-2.186v0c0.35-0.703 0.783-1.283 1.298-1.74 0.518-0.448 1.096-0.727 1.733-0.837 0.637-0.11 1.297 0.006 1.981 0.347v0c0.989 0.493 1.546 1.236 1.671 2.23zM86.263 259.419v0c-0.454-0.226-0.9-0.297-1.337-0.212-0.435 0.094-0.837 0.309-1.207 0.645-0.372 0.342-0.69 0.778-0.953 1.306v0c-0.245 0.491-0.401 0.984-0.469 1.478-0.065 0.503-0.005 0.96 0.179 1.37 0.181 0.416 0.52 0.748 1.017 0.995v0c0.491 0.245 0.951 0.303 1.38 0.176 0.435-0.125 0.826-0.365 1.173-0.72 0.338-0.352 0.619-0.751 0.842-1.198v0c0.242-0.485 0.403-0.979 0.483-1.483 0.077-0.497 0.033-0.954-0.132-1.37-0.165-0.416-0.49-0.745-0.976-0.987z" fill="#265171" data-fill-palette-color="primary"></path><path d="M110.875 264.74l-0.366 1.207-3.101-0.942-2.779 9.154-1.376-0.418 2.779-9.153-3.111-0.945 0.366-1.206z" fill="#265171" data-fill-palette-color="primary"></path><path d="M117.443 274.707l1.273 0.278c-0.316 0.799-0.827 1.38-1.533 1.745-0.712 0.364-1.533 0.444-2.463 0.242v0c-0.794-0.173-1.42-0.498-1.878-0.974-0.458-0.477-0.751-1.056-0.879-1.738-0.129-0.682-0.105-1.427 0.071-2.235v0c0.194-0.889 0.509-1.62 0.947-2.193 0.443-0.565 0.974-0.964 1.594-1.2 0.618-0.228 1.291-0.263 2.017-0.104v0c0.821 0.179 1.448 0.515 1.882 1.007 0.438 0.501 0.705 1.121 0.8 1.86 0.102 0.74 0.052 1.572-0.149 2.495v0l-5.844-1.274c-0.148 0.778-0.088 1.463 0.181 2.056 0.276 0.593 0.797 0.974 1.565 1.14v0c1.039 0.226 1.844-0.142 2.416-1.105zM116.329 269.687v0c-0.706-0.154-1.297-0.037-1.772 0.349-0.474 0.38-0.814 0.896-1.02 1.549v0l4.45 0.969c0.096-0.441 0.095-0.861-0.003-1.259-0.098-0.398-0.286-0.741-0.565-1.03-0.272-0.287-0.635-0.48-1.09-0.578z" fill="#265171" data-fill-palette-color="primary"></path><path d="M129.875 273.589v0l-1.291-0.173c-0.005-0.54-0.155-0.988-0.451-1.343-0.296-0.355-0.726-0.57-1.291-0.646v0c-0.551-0.074-1.016 0.022-1.395 0.286-0.379 0.265-0.676 0.628-0.892 1.09-0.224 0.468-0.371 0.967-0.442 1.497v0c-0.072 0.537-0.056 1.047 0.047 1.531 0.104 0.477 0.31 0.879 0.616 1.207 0.313 0.329 0.735 0.53 1.266 0.601v0c1.136 0.152 1.899-0.39 2.289-1.628v0l1.291 0.173c-0.212 0.953-0.643 1.663-1.295 2.129-0.652 0.473-1.477 0.643-2.475 0.509v0c-0.778-0.104-1.41-0.382-1.897-0.832-0.494-0.445-0.84-1.003-1.037-1.674-0.197-0.671-0.243-1.403-0.138-2.195v0c0.108-0.806 0.343-1.517 0.707-2.134 0.364-0.624 0.844-1.096 1.44-1.416 0.597-0.32 1.294-0.426 2.093-0.319v0c0.985 0.132 1.73 0.509 2.236 1.13 0.506 0.621 0.712 1.357 0.619 2.207z" fill="#265171" data-fill-palette-color="primary"></path><path d="M134.87 279.346l-1.29-0.068 0.43-8.106 1.197 0.063-0.072 1.343c0.345-0.476 0.733-0.841 1.165-1.097 0.431-0.262 0.966-0.377 1.604-0.343v0c0.479 0.025 0.908 0.132 1.288 0.319 0.373 0.18 0.669 0.436 0.888 0.767 0.212 0.338 0.304 0.761 0.277 1.267v0l-0.326 6.129-1.279-0.068 0.298-5.619c0.029-0.548-0.116-0.959-0.436-1.233-0.312-0.274-0.698-0.423-1.155-0.448v0c-0.486-0.026-0.898 0.078-1.237 0.31-0.346 0.225-0.613 0.534-0.801 0.928-0.181 0.394-0.284 0.823-0.308 1.288v0z" fill="#265171" data-fill-palette-color="primary"></path><path d="M147.686 271.073v0c0.833-0.027 1.527 0.138 2.081 0.495 0.554 0.364 0.974 0.865 1.258 1.502 0.285 0.644 0.441 1.379 0.469 2.205v0c0.027 0.812-0.081 1.553-0.324 2.221-0.243 0.661-0.628 1.188-1.158 1.581-0.529 0.4-1.21 0.613-2.043 0.64v0c-0.826 0.027-1.52-0.141-2.081-0.505-0.561-0.357-0.984-0.858-1.269-1.502-0.285-0.651-0.441-1.383-0.468-2.195v0c-0.027-0.826 0.081-1.57 0.323-2.231 0.243-0.654 0.632-1.181 1.168-1.581 0.536-0.393 1.218-0.603 2.044-0.63zM147.725 272.26v0c-0.549 0.018-0.988 0.178-1.319 0.481-0.331 0.303-0.572 0.693-0.723 1.171-0.144 0.484-0.207 1.004-0.188 1.559v0c0.018 0.549 0.115 1.06 0.289 1.534 0.182 0.474 0.448 0.851 0.799 1.131 0.35 0.274 0.799 0.401 1.347 0.383v0c0.542-0.018 0.978-0.174 1.308-0.47 0.331-0.303 0.572-0.696 0.723-1.181 0.144-0.484 0.207-1.001 0.189-1.549v0c-0.018-0.555-0.115-1.07-0.29-1.544-0.182-0.467-0.448-0.84-0.798-1.121-0.35-0.281-0.795-0.412-1.337-0.394z" fill="#265171" data-fill-palette-color="primary"></path><path d="M154.827 267.646l4.038-0.454 1.145 10.179 2.475-0.279 0.118 1.046-6.514 0.733-0.117-1.046 2.785-0.313-1.027-9.133-2.786 0.313z" fill="#265171" data-fill-palette-color="primary"></path><path d="M168.409 268.492v0c0.817-0.164 1.529-0.115 2.134 0.147 0.606 0.268 1.102 0.693 1.488 1.276 0.387 0.589 0.662 1.288 0.824 2.098v0c0.159 0.797 0.174 1.545 0.045 2.244-0.131 0.692-0.425 1.275-0.883 1.75-0.456 0.481-1.093 0.803-1.911 0.966v0c-0.811 0.162-1.522 0.11-2.135-0.157-0.612-0.26-1.111-0.685-1.498-1.273-0.388-0.595-0.662-1.292-0.822-2.088v0c-0.162-0.811-0.178-1.562-0.047-2.255 0.132-0.685 0.43-1.269 0.893-1.751 0.465-0.476 1.102-0.794 1.912-0.957zM168.642 269.657v0c-0.538 0.108-0.945 0.338-1.222 0.691-0.277 0.353-0.45 0.777-0.521 1.273-0.063 0.501-0.039 1.025 0.07 1.57v0c0.108 0.538 0.287 1.027 0.538 1.465 0.258 0.437 0.582 0.766 0.972 0.985 0.39 0.213 0.854 0.265 1.392 0.157v0c0.531-0.106 0.936-0.332 1.214-0.678 0.277-0.353 0.45-0.781 0.519-1.284 0.063-0.501 0.04-1.021-0.068-1.559v0c-0.109-0.545-0.289-1.037-0.539-1.475-0.256-0.431-0.58-0.755-0.971-0.975-0.391-0.219-0.852-0.276-1.384-0.17z" fill="#265171" data-fill-palette-color="primary"></path><path d="M181.584 277.278v0c-0.841 0.242-1.609 0.26-2.304 0.055-0.693-0.198-1.212-0.696-1.557-1.494v0l1.292-0.371c0.431 0.823 1.198 1.076 2.3 0.76v0c0.788-0.226 1.29-0.605 1.505-1.138 0.218-0.525 0.177-1.309-0.122-2.35v0l-0.129-0.45c-0.097 0.519-0.312 0.953-0.645 1.302-0.335 0.342-0.764 0.588-1.285 0.737v0c-0.761 0.219-1.448 0.217-2.061-0.004-0.613-0.221-1.131-0.615-1.553-1.18-0.431-0.57-0.761-1.252-0.989-2.047v0c-0.219-0.761-0.294-1.488-0.225-2.18 0.075-0.694 0.311-1.296 0.706-1.807 0.395-0.511 0.96-0.872 1.695-1.083v0c1.062-0.305 1.975-0.133 2.739 0.514v0l-0.276-0.961 1.241-0.357 1.879 6.54c0.311 1.082 0.456 1.929 0.437 2.542v0c-0.025 0.744-0.262 1.365-0.712 1.863-0.443 0.496-1.089 0.866-1.936 1.109zM180.486 273.116v0c0.527-0.151 0.906-0.419 1.135-0.804 0.236-0.386 0.362-0.827 0.379-1.323 0.012-0.488-0.051-0.972-0.189-1.452v0c-0.15-0.521-0.365-0.994-0.646-1.419-0.279-0.419-0.62-0.725-1.024-0.921-0.403-0.195-0.865-0.218-1.385-0.068v0c-0.487 0.14-0.864 0.389-1.13 0.747-0.257 0.363-0.408 0.793-0.453 1.291-0.043 0.504 0.017 1.04 0.179 1.607v0c0.151 0.527 0.369 0.996 0.654 1.406 0.293 0.415 0.645 0.711 1.057 0.889 0.414 0.185 0.889 0.2 1.423 0.047z" fill="#265171" data-fill-palette-color="primary"></path><path d="M188.97 261.376l-1.444 0.543-0.543-1.444 1.444-0.542zM185.449 263.946l3.804-1.429 2.486 6.613 2.331-0.876 0.371 0.985-6.136 2.306-0.37-0.985 2.614-0.983-2.115-5.628-2.614 0.982z" fill="#265171" data-fill-palette-color="primary"></path><path d="M202.397 259.511v0l-1.176 0.559c-0.299-0.45-0.669-0.743-1.111-0.879-0.442-0.136-0.92-0.082-1.434 0.163v0c-0.502 0.239-0.839 0.572-1.013 1-0.173 0.429-0.224 0.895-0.153 1.4 0.068 0.514 0.216 1.013 0.446 1.496v0c0.233 0.489 0.524 0.908 0.875 1.257 0.347 0.342 0.739 0.568 1.175 0.676 0.442 0.105 0.905 0.043 1.388-0.187v0c1.035-0.492 1.379-1.363 1.03-2.613v0l1.177-0.56c0.342 0.914 0.368 1.744 0.076 2.491-0.288 0.753-0.887 1.345-1.797 1.778v0c-0.709 0.337-1.39 0.45-2.043 0.337-0.657-0.103-1.251-0.382-1.783-0.837-0.532-0.455-0.969-1.043-1.312-1.765v0c-0.349-0.734-0.54-1.459-0.572-2.174-0.035-0.722 0.11-1.379 0.435-1.972 0.326-0.593 0.852-1.063 1.58-1.409v0c0.897-0.427 1.727-0.517 2.489-0.273 0.763 0.245 1.337 0.749 1.723 1.512z" fill="#265171" data-fill-palette-color="primary"></path><path d="M214.451 257.849v0l0.494 0.846c-0.23 0.239-0.43 0.408-0.598 0.506v0c-0.75 0.438-1.372 0.33-1.866-0.323v0c-0.166 0.612-0.388 1.107-0.665 1.486-0.28 0.389-0.642 0.712-1.086 0.972v0c-0.678 0.396-1.335 0.538-1.971 0.426-0.634-0.121-1.139-0.505-1.517-1.153v0c-0.284-0.486-0.408-0.933-0.372-1.34 0.036-0.407 0.16-0.773 0.373-1.098 0.216-0.319 0.442-0.58 0.677-0.782v0c0.115-0.092 0.292-0.231 0.529-0.417 0.233-0.193 0.532-0.431 0.897-0.716v0c0.409-0.319 0.669-0.583 0.78-0.793 0.111-0.21 0.102-0.425-0.028-0.648v0l-0.142-0.243c-0.406-0.696-1.143-0.732-2.211-0.109v0c-0.522 0.305-0.857 0.633-1.006 0.985-0.139 0.355-0.108 0.759 0.093 1.213v0l-1.125 0.657c-0.455-0.82-0.527-1.558-0.218-2.214 0.303-0.652 0.872-1.221 1.706-1.707v0c0.864-0.504 1.614-0.721 2.251-0.65 0.633 0.065 1.132 0.409 1.496 1.033v0l2.358 4.041c0.214 0.366 0.521 0.432 0.924 0.197v0c0.072-0.042 0.148-0.098 0.227-0.169zM211.532 257.272v0l-0.646-1.107c-0.171 0.245-0.41 0.497-0.717 0.756-0.303 0.266-0.592 0.502-0.865 0.71v0c-0.481 0.361-0.825 0.723-1.031 1.085-0.204 0.353-0.175 0.754 0.087 1.204v0c0.203 0.348 0.487 0.544 0.851 0.589 0.374 0.047 0.782-0.058 1.226-0.317v0c0.33-0.193 0.612-0.454 0.846-0.784 0.23-0.336 0.375-0.694 0.435-1.074 0.065-0.384 0.004-0.738-0.186-1.062z" fill="#265171" data-fill-palette-color="primary"></path><path d="M229.965 244.666l-5.569-6.726 1.027-0.85 6.905 8.339-1.244 1.03-8.805-3.952-0.008 0.007 5.522 6.67-1.027 0.85-6.905-8.339 1.204-0.997 8.892 3.975z" fill="#265171" data-fill-palette-color="primary"></path><path d="M240.039 236.767v0l0.686 0.7c-0.165 0.288-0.317 0.5-0.456 0.636v0c-0.62 0.608-1.249 0.656-1.888 0.144v0c-0.011 0.634-0.105 1.168-0.281 1.604-0.176 0.445-0.448 0.848-0.815 1.207v0c-0.56 0.55-1.163 0.848-1.807 0.897-0.644 0.038-1.229-0.211-1.753-0.747v0c-0.394-0.402-0.623-0.804-0.689-1.208-0.065-0.403-0.034-0.789 0.093-1.156 0.131-0.362 0.287-0.67 0.466-0.924v0c0.09-0.117 0.226-0.295 0.41-0.534 0.179-0.244 0.411-0.549 0.694-0.914v0c0.318-0.41 0.506-0.729 0.562-0.96 0.056-0.23-0.006-0.437-0.185-0.621v0l-0.197-0.201c-0.564-0.575-1.288-0.43-2.171 0.436v0c-0.432 0.423-0.676 0.824-0.734 1.201-0.048 0.378 0.081 0.762 0.387 1.154v0l-0.93 0.912c-0.642-0.684-0.893-1.382-0.753-2.093 0.135-0.706 0.547-1.397 1.236-2.073v0c0.714-0.7 1.389-1.094 2.023-1.182 0.63-0.092 1.197 0.12 1.703 0.636v0l3.276 3.341c0.297 0.303 0.611 0.291 0.944-0.035v0c0.06-0.058 0.119-0.131 0.179-0.22zM237.068 236.922v0l-0.898-0.915c-0.106 0.279-0.276 0.582-0.51 0.909-0.229 0.332-0.451 0.632-0.664 0.9v0c-0.378 0.468-0.623 0.903-0.735 1.304-0.112 0.392 0.015 0.774 0.379 1.146v0c0.282 0.288 0.605 0.409 0.969 0.363 0.374-0.045 0.744-0.248 1.111-0.608v0c0.273-0.268 0.482-0.59 0.629-0.966 0.141-0.382 0.194-0.764 0.158-1.148-0.031-0.388-0.177-0.717-0.439-0.985z" fill="#265171" data-fill-palette-color="primary"></path><path d="M243.499 225.844v0l-0.854 0.984c-0.454-0.293-0.911-0.413-1.369-0.361-0.459 0.052-0.876 0.293-1.249 0.724v0c-0.364 0.42-0.54 0.861-0.527 1.322 0.013 0.462 0.153 0.91 0.42 1.344 0.268 0.444 0.604 0.841 1.007 1.192v0c0.409 0.355 0.844 0.622 1.305 0.802 0.456 0.175 0.905 0.224 1.348 0.148 0.447-0.081 0.846-0.323 1.197-0.727v0c0.751-0.866 0.717-1.801-0.103-2.807v0l0.854-0.984c0.68 0.7 1.036 1.451 1.068 2.251 0.037 0.805-0.274 1.588-0.935 2.349v0c-0.515 0.593-1.094 0.969-1.737 1.128-0.643 0.169-1.299 0.151-1.969-0.053-0.669-0.204-1.306-0.568-1.909-1.092v0c-0.614-0.533-1.079-1.12-1.395-1.762-0.322-0.647-0.452-1.308-0.391-1.982 0.061-0.674 0.355-1.315 0.883-1.924v0c0.651-0.75 1.375-1.166 2.172-1.247 0.797-0.081 1.525 0.151 2.184 0.695z" fill="#265171" data-fill-palette-color="primary"></path><path d="M245.261 217.038l-0.914 1.242-1.242-0.914 0.914-1.242zM243.713 221.112l2.408-3.273 5.691 4.186 1.476-2.006 0.848 0.624-3.884 5.28-0.848-0.624 1.655-2.25-4.843-3.563-1.655 2.25z" fill="#265171" data-fill-palette-color="primary"></path><path d="M251.182 209.579v0c0.435-0.711 0.954-1.2 1.556-1.466 0.609-0.263 1.257-0.338 1.946-0.227 0.695 0.116 1.395 0.389 2.101 0.82v0c0.693 0.424 1.253 0.921 1.678 1.491 0.419 0.566 0.648 1.178 0.685 1.836 0.043 0.662-0.153 1.348-0.588 2.059v0c-0.431 0.705-0.953 1.192-1.565 1.461-0.606 0.272-1.257 0.351-1.952 0.235-0.701-0.119-1.398-0.391-2.091-0.815v0c-0.705-0.431-1.268-0.93-1.687-1.495-0.413-0.562-0.64-1.177-0.68-1.845-0.034-0.664 0.165-1.349 0.597-2.054zM252.195 210.199v0c-0.286 0.468-0.394 0.924-0.323 1.366 0.071 0.443 0.265 0.858 0.581 1.247 0.326 0.386 0.725 0.725 1.2 1.015v0c0.468 0.286 0.948 0.486 1.441 0.6 0.496 0.108 0.957 0.093 1.383-0.045 0.421-0.142 0.774-0.447 1.061-0.915v0c0.283-0.462 0.391-0.913 0.326-1.352-0.071-0.443-0.268-0.86-0.59-1.253-0.326-0.386-0.722-0.723-1.191-1.009v0c-0.474-0.29-0.957-0.492-1.449-0.606-0.49-0.104-0.948-0.087-1.375 0.051-0.427 0.138-0.781 0.438-1.064 0.901z" fill="#265171" data-fill-palette-color="primary"></path><path d="M262.786 205.914l-0.585 1.152-7.238-3.676 0.543-1.068 1.198 0.608c-0.295-0.508-0.472-1.011-0.531-1.508-0.065-0.501 0.047-1.036 0.337-1.606v0c0.217-0.427 0.488-0.777 0.812-1.048 0.315-0.268 0.669-0.435 1.061-0.501 0.395-0.057 0.818 0.03 1.271 0.259v0l5.472 2.78-0.58 1.143-5.017-2.549c-0.489-0.249-0.924-0.282-1.304-0.101-0.377 0.175-0.669 0.466-0.877 0.875v0c-0.22 0.434-0.293 0.853-0.218 1.257 0.066 0.407 0.241 0.777 0.524 1.108 0.287 0.325 0.638 0.593 1.053 0.803v0z" fill="#265171" data-fill-palette-color="primary"></path><path d="M268.876 189.926v0l0.909 0.366c-0.036 0.33-0.09 0.585-0.163 0.766v0c-0.325 0.805-0.882 1.101-1.672 0.888v0c0.244 0.585 0.372 1.112 0.385 1.582 0.017 0.479-0.071 0.956-0.263 1.433v0c-0.293 0.728-0.726 1.243-1.297 1.544-0.575 0.293-1.21 0.299-1.906 0.018v0c-0.522-0.21-0.893-0.487-1.115-0.831-0.221-0.344-0.347-0.709-0.378-1.096-0.025-0.384-0.006-0.729 0.057-1.033v0c0.035-0.143 0.089-0.361 0.162-0.654 0.067-0.295 0.157-0.667 0.27-1.115v0c0.128-0.503 0.171-0.871 0.131-1.105-0.041-0.234-0.18-0.398-0.418-0.495v0l-0.261-0.105c-0.747-0.301-1.352 0.122-1.815 1.269v0c-0.226 0.561-0.29 1.025-0.191 1.394 0.107 0.365 0.379 0.666 0.816 0.902v0l-0.487 1.208c-0.862-0.37-1.371-0.909-1.529-1.616-0.159-0.701-0.059-1.499 0.303-2.394v0c0.374-0.928 0.834-1.559 1.381-1.893 0.54-0.337 1.145-0.37 1.815-0.1v0l4.34 1.75c0.393 0.158 0.677 0.022 0.85-0.41v0c0.031-0.077 0.057-0.168 0.076-0.273zM266.216 191.258v0l-1.189-0.479c0.015 0.298-0.02 0.644-0.103 1.037-0.077 0.396-0.16 0.759-0.249 1.09v0c-0.159 0.58-0.209 1.077-0.151 1.49 0.054 0.404 0.323 0.703 0.807 0.898v0c0.374 0.151 0.718 0.132 1.033-0.055 0.324-0.191 0.583-0.525 0.775-1.002v0c0.143-0.354 0.206-0.733 0.189-1.138-0.023-0.406-0.128-0.778-0.315-1.115-0.184-0.344-0.449-0.586-0.797-0.726z" fill="#265171" data-fill-palette-color="primary"></path><path d="M260.168 182.929l1.22-3.876 9.771 3.074 0.747-2.376 1.004 0.316-1.967 6.252-1.004-0.316 0.841-2.674-8.767-2.758-0.841 2.674z" fill="#265171" data-fill-palette-color="primary"></path></g></svg></g></svg></g></svg></g><g></g></svg></g><defs></defs></svg><rect width="279.72" height="279.72" fill="none" stroke="none" visibility="hidden"></rect></g></svg></g></svg>